<?xml version="1.0" encoding="UTF-8" ?>
<svg version="1.1" width="160000" height="160000" xmlns="http://www.w3.org/2000/svg" shape-rendering="crispEdges">
<rect x="60000" y="0" width="10000" height="10000" fill="#000000" />
<rect x="70000" y="0" width="10000" height="10000" fill="#000000" />
<rect x="80000" y="0" width="10000" height="10000" fill="#000000" />
<rect x="90000" y="0" width="10000" height="10000" fill="#000000" />
<rect x="40000" y="10000" width="10000" height="10000" fill="#000000" />
<rect x="50000" y="10000" width="10000" height="10000" fill="#000000" />
<rect x="60000" y="10000" width="10000" height="10000" fill="#FBF236" />
<rect x="70000" y="10000" width="10000" height="10000" fill="#FBF236" />
<rect x="80000" y="10000" width="10000" height="10000" fill="#FBF236" />
<rect x="90000" y="10000" width="10000" height="10000" fill="#FBF236" />
<rect x="100000" y="10000" width="10000" height="10000" fill="#000000" />
<rect x="110000" y="10000" width="10000" height="10000" fill="#000000" />
<rect x="30000" y="20000" width="10000" height="10000" fill="#000000" />
<rect x="40000" y="20000" width="10000" height="10000" fill="#FBF236" />
<rect x="50000" y="20000" width="10000" height="10000" fill="#FBF236" />
<rect x="60000" y="20000" width="10000" height="10000" fill="#FBF236" />
<rect x="70000" y="20000" width="10000" height="10000" fill="#FBF236" />
<rect x="80000" y="20000" width="10000" height="10000" fill="#FBF236" />
<rect x="90000" y="20000" width="10000" height="10000" fill="#FBF236" />
<rect x="100000" y="20000" width="10000" height="10000" fill="#FBF236" />
<rect x="110000" y="20000" width="10000" height="10000" fill="#FBF236" />
<rect x="120000" y="20000" width="10000" height="10000" fill="#000000" />
<rect x="20000" y="30000" width="10000" height="10000" fill="#000000" />
<rect x="30000" y="30000" width="10000" height="10000" fill="#FBF236" />
<rect x="40000" y="30000" width="10000" height="10000" fill="#FBF236" />
<rect x="50000" y="30000" width="10000" height="10000" fill="#FBF236" />
<rect x="60000" y="30000" width="10000" height="10000" fill="#FBF236" />
<rect x="70000" y="30000" width="10000" height="10000" fill="#FBF236" />
<rect x="80000" y="30000" width="10000" height="10000" fill="#FBF236" />
<rect x="90000" y="30000" width="10000" height="10000" fill="#FBF236" />
<rect x="100000" y="30000" width="10000" height="10000" fill="#FBF236" />
<rect x="110000" y="30000" width="10000" height="10000" fill="#FBF236" />
<rect x="120000" y="30000" width="10000" height="10000" fill="#FBF236" />
<rect x="130000" y="30000" width="10000" height="10000" fill="#000000" />
<rect x="10000" y="40000" width="10000" height="10000" fill="#000000" />
<rect x="20000" y="40000" width="10000" height="10000" fill="#FBF236" />
<rect x="30000" y="40000" width="10000" height="10000" fill="#FBF236" />
<rect x="40000" y="40000" width="10000" height="10000" fill="#000000" />
<rect x="50000" y="40000" width="10000" height="10000" fill="#000000" />
<rect x="60000" y="40000" width="10000" height="10000" fill="#FBF236" />
<rect x="70000" y="40000" width="10000" height="10000" fill="#FBF236" />
<rect x="80000" y="40000" width="10000" height="10000" fill="#FBF236" />
<rect x="90000" y="40000" width="10000" height="10000" fill="#FBF236" />
<rect x="100000" y="40000" width="10000" height="10000" fill="#000000" />
<rect x="110000" y="40000" width="10000" height="10000" fill="#000000" />
<rect x="120000" y="40000" width="10000" height="10000" fill="#FBF236" />
<rect x="130000" y="40000" width="10000" height="10000" fill="#FBF236" />
<rect x="140000" y="40000" width="10000" height="10000" fill="#000000" />
<rect x="10000" y="50000" width="10000" height="10000" fill="#000000" />
<rect x="20000" y="50000" width="10000" height="10000" fill="#FBF236" />
<rect x="30000" y="50000" width="10000" height="10000" fill="#000000" />
<rect x="40000" y="50000" width="10000" height="10000" fill="#DBDAD7" />
<rect x="50000" y="50000" width="10000" height="10000" fill="#DBDAD7" />
<rect x="60000" y="50000" width="10000" height="10000" fill="#000000" />
<rect x="70000" y="50000" width="10000" height="10000" fill="#FBF236" />
<rect x="80000" y="50000" width="10000" height="10000" fill="#FBF236" />
<rect x="90000" y="50000" width="10000" height="10000" fill="#000000" />
<rect x="100000" y="50000" width="10000" height="10000" fill="#DBDAD7" />
<rect x="110000" y="50000" width="10000" height="10000" fill="#DBDAD7" />
<rect x="120000" y="50000" width="10000" height="10000" fill="#000000" />
<rect x="130000" y="50000" width="10000" height="10000" fill="#FBF236" />
<rect x="140000" y="50000" width="10000" height="10000" fill="#000000" />
<rect x="0" y="60000" width="10000" height="10000" fill="#000000" />
<rect x="10000" y="60000" width="10000" height="10000" fill="#FBF236" />
<rect x="20000" y="60000" width="10000" height="10000" fill="#000000" />
<rect x="30000" y="60000" width="10000" height="10000" fill="#DBDAD7" />
<rect x="40000" y="60000" width="10000" height="10000" fill="#FFFFFF" />
<rect x="50000" y="60000" width="10000" height="10000" fill="#000000" />
<rect x="60000" y="60000" width="10000" height="10000" fill="#DBDAD7" />
<rect x="70000" y="60000" width="10000" height="10000" fill="#000000" />
<rect x="80000" y="60000" width="10000" height="10000" fill="#000000" />
<rect x="90000" y="60000" width="10000" height="10000" fill="#DBDAD7" />
<rect x="100000" y="60000" width="10000" height="10000" fill="#FFFFFF" />
<rect x="110000" y="60000" width="10000" height="10000" fill="#000000" />
<rect x="120000" y="60000" width="10000" height="10000" fill="#DBDAD7" />
<rect x="130000" y="60000" width="10000" height="10000" fill="#000000" />
<rect x="140000" y="60000" width="10000" height="10000" fill="#FBF236" />
<rect x="150000" y="60000" width="10000" height="10000" fill="#000000" />
<rect x="0" y="70000" width="10000" height="10000" fill="#000000" />
<rect x="10000" y="70000" width="10000" height="10000" fill="#FBF236" />
<rect x="20000" y="70000" width="10000" height="10000" fill="#000000" />
<rect x="30000" y="70000" width="10000" height="10000" fill="#DBDAD7" />
<rect x="40000" y="70000" width="10000" height="10000" fill="#000000" />
<rect x="50000" y="70000" width="10000" height="10000" fill="#000000" />
<rect x="60000" y="70000" width="10000" height="10000" fill="#DBDAD7" />
<rect x="70000" y="70000" width="10000" height="10000" fill="#000000" />
<rect x="80000" y="70000" width="10000" height="10000" fill="#000000" />
<rect x="90000" y="70000" width="10000" height="10000" fill="#DBDAD7" />
<rect x="100000" y="70000" width="10000" height="10000" fill="#000000" />
<rect x="110000" y="70000" width="10000" height="10000" fill="#000000" />
<rect x="120000" y="70000" width="10000" height="10000" fill="#DBDAD7" />
<rect x="130000" y="70000" width="10000" height="10000" fill="#000000" />
<rect x="140000" y="70000" width="10000" height="10000" fill="#FBF236" />
<rect x="150000" y="70000" width="10000" height="10000" fill="#000000" />
<rect x="0" y="80000" width="10000" height="10000" fill="#000000" />
<rect x="10000" y="80000" width="10000" height="10000" fill="#FBF236" />
<rect x="20000" y="80000" width="10000" height="10000" fill="#FBF236" />
<rect x="30000" y="80000" width="10000" height="10000" fill="#000000" />
<rect x="40000" y="80000" width="10000" height="10000" fill="#DBDAD7" />
<rect x="50000" y="80000" width="10000" height="10000" fill="#DBDAD7" />
<rect x="60000" y="80000" width="10000" height="10000" fill="#000000" />
<rect x="70000" y="80000" width="10000" height="10000" fill="#FBF236" />
<rect x="80000" y="80000" width="10000" height="10000" fill="#FBF236" />
<rect x="90000" y="80000" width="10000" height="10000" fill="#000000" />
<rect x="100000" y="80000" width="10000" height="10000" fill="#DBDAD7" />
<rect x="110000" y="80000" width="10000" height="10000" fill="#DBDAD7" />
<rect x="120000" y="80000" width="10000" height="10000" fill="#000000" />
<rect x="130000" y="80000" width="10000" height="10000" fill="#FBF236" />
<rect x="140000" y="80000" width="10000" height="10000" fill="#FBF236" />
<rect x="150000" y="80000" width="10000" height="10000" fill="#000000" />
<rect x="0" y="90000" width="10000" height="10000" fill="#000000" />
<rect x="10000" y="90000" width="10000" height="10000" fill="#FBF236" />
<rect x="20000" y="90000" width="10000" height="10000" fill="#FBF236" />
<rect x="30000" y="90000" width="10000" height="10000" fill="#FBF236" />
<rect x="40000" y="90000" width="10000" height="10000" fill="#000000" />
<rect x="50000" y="90000" width="10000" height="10000" fill="#000000" />
<rect x="60000" y="90000" width="10000" height="10000" fill="#FBF236" />
<rect x="70000" y="90000" width="10000" height="10000" fill="#FBF236" />
<rect x="80000" y="90000" width="10000" height="10000" fill="#FBF236" />
<rect x="90000" y="90000" width="10000" height="10000" fill="#FBF236" />
<rect x="100000" y="90000" width="10000" height="10000" fill="#000000" />
<rect x="110000" y="90000" width="10000" height="10000" fill="#000000" />
<rect x="120000" y="90000" width="10000" height="10000" fill="#FBF236" />
<rect x="130000" y="90000" width="10000" height="10000" fill="#FBF236" />
<rect x="140000" y="90000" width="10000" height="10000" fill="#FBF236" />
<rect x="150000" y="90000" width="10000" height="10000" fill="#000000" />
<rect x="10000" y="100000" width="10000" height="10000" fill="#000000" />
<rect x="20000" y="100000" width="10000" height="10000" fill="#FBF236" />
<rect x="30000" y="100000" width="10000" height="10000" fill="#FBF236" />
<rect x="40000" y="100000" width="10000" height="10000" fill="#FBF236" />
<rect x="50000" y="100000" width="10000" height="10000" fill="#FBF236" />
<rect x="60000" y="100000" width="10000" height="10000" fill="#FBF236" />
<rect x="70000" y="100000" width="10000" height="10000" fill="#FBF236" />
<rect x="80000" y="100000" width="10000" height="10000" fill="#FBF236" />
<rect x="90000" y="100000" width="10000" height="10000" fill="#FBF236" />
<rect x="100000" y="100000" width="10000" height="10000" fill="#FBF236" />
<rect x="110000" y="100000" width="10000" height="10000" fill="#FBF236" />
<rect x="120000" y="100000" width="10000" height="10000" fill="#FBF236" />
<rect x="130000" y="100000" width="10000" height="10000" fill="#FBF236" />
<rect x="140000" y="100000" width="10000" height="10000" fill="#000000" />
<rect x="10000" y="110000" width="10000" height="10000" fill="#000000" />
<rect x="20000" y="110000" width="10000" height="10000" fill="#FBF236" />
<rect x="30000" y="110000" width="10000" height="10000" fill="#000000" />
<rect x="40000" y="110000" width="10000" height="10000" fill="#FFFFFF" />
<rect x="50000" y="110000" width="10000" height="10000" fill="#FFFFFF" />
<rect x="60000" y="110000" width="10000" height="10000" fill="#FFFFFF" />
<rect x="70000" y="110000" width="10000" height="10000" fill="#000000" />
<rect x="80000" y="110000" width="10000" height="10000" fill="#FFFFFF" />
<rect x="90000" y="110000" width="10000" height="10000" fill="#FFFFFF" />
<rect x="100000" y="110000" width="10000" height="10000" fill="#FFFFFF" />
<rect x="110000" y="110000" width="10000" height="10000" fill="#000000" />
<rect x="120000" y="110000" width="10000" height="10000" fill="#000000" />
<rect x="130000" y="110000" width="10000" height="10000" fill="#FBF236" />
<rect x="140000" y="110000" width="10000" height="10000" fill="#000000" />
<rect x="20000" y="120000" width="10000" height="10000" fill="#000000" />
<rect x="30000" y="120000" width="10000" height="10000" fill="#FBF236" />
<rect x="40000" y="120000" width="10000" height="10000" fill="#000000" />
<rect x="50000" y="120000" width="10000" height="10000" fill="#000000" />
<rect x="60000" y="120000" width="10000" height="10000" fill="#000000" />
<rect x="70000" y="120000" width="10000" height="10000" fill="#000000" />
<rect x="80000" y="120000" width="10000" height="10000" fill="#000000" />
<rect x="90000" y="120000" width="10000" height="10000" fill="#000000" />
<rect x="100000" y="120000" width="10000" height="10000" fill="#000000" />
<rect x="110000" y="120000" width="10000" height="10000" fill="#000000" />
<rect x="120000" y="120000" width="10000" height="10000" fill="#FBF236" />
<rect x="130000" y="120000" width="10000" height="10000" fill="#000000" />
<rect x="30000" y="130000" width="10000" height="10000" fill="#000000" />
<rect x="40000" y="130000" width="10000" height="10000" fill="#FBF236" />
<rect x="50000" y="130000" width="10000" height="10000" fill="#FBF236" />
<rect x="60000" y="130000" width="10000" height="10000" fill="#000000" />
<rect x="70000" y="130000" width="10000" height="10000" fill="#000000" />
<rect x="80000" y="130000" width="10000" height="10000" fill="#000000" />
<rect x="90000" y="130000" width="10000" height="10000" fill="#000000" />
<rect x="100000" y="130000" width="10000" height="10000" fill="#FBF236" />
<rect x="110000" y="130000" width="10000" height="10000" fill="#FBF236" />
<rect x="120000" y="130000" width="10000" height="10000" fill="#000000" />
<rect x="40000" y="140000" width="10000" height="10000" fill="#000000" />
<rect x="50000" y="140000" width="10000" height="10000" fill="#000000" />
<rect x="60000" y="140000" width="10000" height="10000" fill="#FBF236" />
<rect x="70000" y="140000" width="10000" height="10000" fill="#FBF236" />
<rect x="80000" y="140000" width="10000" height="10000" fill="#FBF236" />
<rect x="90000" y="140000" width="10000" height="10000" fill="#FBF236" />
<rect x="100000" y="140000" width="10000" height="10000" fill="#000000" />
<rect x="110000" y="140000" width="10000" height="10000" fill="#000000" />
<rect x="60000" y="150000" width="10000" height="10000" fill="#000000" />
<rect x="70000" y="150000" width="10000" height="10000" fill="#000000" />
<rect x="80000" y="150000" width="10000" height="10000" fill="#000000" />
<rect x="90000" y="150000" width="10000" height="10000" fill="#000000" />
</svg>